<svg xmlns="http://www.w3.org/2000/svg" viewBox="0 0 128 128" role="img" aria-label="Ventus golden spider">
  <defs>
    <radialGradient id="bodyGold" cx="58%" cy="36%" r="70%">
      <stop offset="0" stop-color="#fffce8"/>
      <stop offset=".18" stop-color="#fff1a8"/>
      <stop offset=".42" stop-color="#ffd24a"/>
      <stop offset=".68" stop-color="#b87308"/>
      <stop offset="1" stop-color="#4a2600"/>
    </radialGradient>
    <linearGradient id="legGold" x1="0" y1="0" x2="1" y2="1">
      <stop offset="0" stop-color="#5c3200"/>
      <stop offset=".22" stop-color="#fff6bd"/>
      <stop offset=".46" stop-color="#ffc738"/>
      <stop offset=".72" stop-color="#8b4a00"/>
      <stop offset="1" stop-color="#fff8cf"/>
    </linearGradient>
    <filter id="warmGlow" x="-60%" y="-60%" width="220%" height="220%">
      <feGaussianBlur stdDeviation="2.2" result="blur"/>
      <feColorMatrix in="blur" type="matrix" values="1 0 0 0 1  0 .72 0 0 .55  0 0 .18 0 .03  0 0 0 .9 0" result="goldBlur"/>
      <feMerge>
        <feMergeNode in="goldBlur"/>
        <feMergeNode in="SourceGraphic"/>
      </feMerge>
    </filter>
    <filter id="edge" x="-20%" y="-20%" width="140%" height="140%">
      <feDropShadow dx="0" dy="0" stdDeviation="1.1" flood-color="#fff5bd" flood-opacity=".95"/>
      <feDropShadow dx="0" dy="0" stdDeviation="3.8" flood-color="#ffd54a" flood-opacity=".38"/>
      <feDropShadow dx="0" dy="2" stdDeviation="2" flood-color="#000" flood-opacity=".55"/>
    </filter>
  </defs>
  <g filter="url(#warmGlow)">
    <g fill="none" stroke="url(#legGold)" stroke-width="5.4" stroke-linecap="round" stroke-linejoin="round" filter="url(#edge)">
      <path d="M58 42 C48 30 41 20 35 10"/>
      <path d="M56 51 C42 43 29 37 17 29"/>
      <path d="M55 62 C38 64 24 71 11 83"/>
      <path d="M59 73 C48 89 40 104 33 119"/>
      <path d="M70 42 C80 30 87 20 93 10"/>
      <path d="M72 51 C86 43 99 37 111 29"/>
      <path d="M73 62 C90 64 104 71 117 83"/>
      <path d="M69 73 C80 89 88 104 95 119"/>
    </g>
    <g fill="url(#bodyGold)" filter="url(#edge)">
      <ellipse cx="64" cy="73" rx="21" ry="32"/>
      <ellipse cx="64" cy="43" rx="15.5" ry="17"/>
      <ellipse cx="64" cy="24" rx="7" ry="8"/>
    </g>
    <g fill="none" stroke="#fff7bf" stroke-width="1.35" stroke-linecap="round" opacity=".75">
      <path d="M63 42 C61 55 62 82 64 104"/>
      <path d="M55 58 C62 55 69 55 77 58" opacity=".45"/>
      <path d="M54 76 C61 73 69 73 77 76" opacity=".35"/>
      <path d="M49 44 C55 38 64 36 74 40" opacity=".55"/>
    </g>
    <circle cx="78" cy="56" r="10" fill="#fff9d5" opacity=".42"/>
    <circle cx="72" cy="78" r="13" fill="#fff3a2" opacity=".34"/>
    <path d="M17 29 L111 29 M11 83 L117 83" stroke="#fff9dc" stroke-width=".9" opacity=".16"/>
  </g>
</svg>
